<svg xmlns="http://www.w3.org/2000/svg" xmlns:xlink="http://www.w3.org/1999/xlink" width="70" zoomAndPan="magnify" viewBox="0 0 52.5 52.499999" height="70" preserveAspectRatio="xMidYMid meet" version="1.0"><defs><clipPath id="68059bf845"><path d="M 6 7 L 46.0625 7 L 46.0625 46.636719 L 6 46.636719 Z M 6 7 " clip-rule="nonzero"/></clipPath><clipPath id="a4852f2aef"><path d="M 5.199219 5.773438 L 45 5.773438 L 45 46 L 5.199219 46 Z M 5.199219 5.773438 " clip-rule="nonzero"/></clipPath><clipPath id="bd6c222995"><path d="M 12.265625 15.824219 L 39 15.824219 L 39 36.496094 L 12.265625 36.496094 Z M 12.265625 15.824219 " clip-rule="nonzero"/></clipPath></defs><g clip-path="url(#68059bf845)"><path fill="#0065ff" d="M 35.136719 46.796875 L 17.867188 46.796875 C 11.742188 46.796875 6.777344 41.832031 6.777344 35.710938 L 6.777344 18.441406 C 6.777344 12.316406 11.742188 7.351562 17.867188 7.351562 L 35.136719 7.351562 C 41.257812 7.351562 46.222656 12.316406 46.222656 18.441406 L 46.222656 35.710938 C 46.222656 41.832031 41.257812 46.796875 35.136719 46.796875 " fill-opacity="1" fill-rule="nonzero"/></g><g clip-path="url(#a4852f2aef)"><path fill="#0747a6" d="M 15.980469 6.546875 L 15.902344 6.546875 C 15.6875 6.546875 15.515625 6.375 15.515625 6.160156 C 15.515625 5.949219 15.6875 5.773438 15.902344 5.773438 L 15.980469 5.773438 C 16.191406 5.773438 16.367188 5.949219 16.367188 6.160156 C 16.367188 6.375 16.191406 6.546875 15.980469 6.546875 Z M 17.988281 6.546875 L 17.914062 6.546875 C 17.699219 6.546875 17.527344 6.375 17.527344 6.160156 C 17.527344 5.949219 17.699219 5.773438 17.914062 5.773438 L 17.988281 5.773438 C 18.203125 5.773438 18.375 5.949219 18.375 6.160156 C 18.375 6.375 18.203125 6.546875 17.988281 6.546875 Z M 20 6.546875 L 19.921875 6.546875 C 19.707031 6.546875 19.535156 6.375 19.535156 6.160156 C 19.535156 5.949219 19.707031 5.773438 19.921875 5.773438 L 20 5.773438 C 20.214844 5.773438 20.386719 5.949219 20.386719 6.160156 C 20.386719 6.375 20.214844 6.546875 20 6.546875 Z M 22.007812 6.546875 L 21.933594 6.546875 C 21.71875 6.546875 21.546875 6.375 21.546875 6.160156 C 21.546875 5.949219 21.71875 5.773438 21.933594 5.773438 L 22.007812 5.773438 C 22.222656 5.773438 22.394531 5.949219 22.394531 6.160156 C 22.394531 6.375 22.222656 6.546875 22.007812 6.546875 Z M 24.019531 6.546875 L 23.941406 6.546875 C 23.730469 6.546875 23.554688 6.375 23.554688 6.160156 C 23.554688 5.949219 23.730469 5.773438 23.941406 5.773438 L 24.019531 5.773438 C 24.234375 5.773438 24.40625 5.949219 24.40625 6.160156 C 24.40625 6.375 24.234375 6.546875 24.019531 6.546875 Z M 26.03125 6.546875 L 25.953125 6.546875 C 25.738281 6.546875 25.566406 6.375 25.566406 6.160156 C 25.566406 5.949219 25.738281 5.773438 25.953125 5.773438 L 26.03125 5.773438 C 26.242188 5.773438 26.417969 5.949219 26.417969 6.160156 C 26.417969 6.375 26.242188 6.546875 26.03125 6.546875 Z M 28.039062 6.546875 L 27.960938 6.546875 C 27.75 6.546875 27.574219 6.375 27.574219 6.160156 C 27.574219 5.949219 27.75 5.773438 27.960938 5.773438 L 28.039062 5.773438 C 28.253906 5.773438 28.425781 5.949219 28.425781 6.160156 C 28.425781 6.375 28.253906 6.546875 28.039062 6.546875 Z M 30.050781 6.546875 L 29.972656 6.546875 C 29.757812 6.546875 29.585938 6.375 29.585938 6.160156 C 29.585938 5.949219 29.757812 5.773438 29.972656 5.773438 L 30.050781 5.773438 C 30.261719 5.773438 30.4375 5.949219 30.4375 6.160156 C 30.4375 6.375 30.261719 6.546875 30.050781 6.546875 Z M 32.058594 6.546875 L 31.980469 6.546875 C 31.769531 6.546875 31.59375 6.375 31.59375 6.160156 C 31.59375 5.949219 31.769531 5.773438 31.980469 5.773438 L 32.058594 5.773438 C 32.273438 5.773438 32.445312 5.949219 32.445312 6.160156 C 32.445312 6.375 32.273438 6.546875 32.058594 6.546875 Z M 34.070312 6.546875 L 33.992188 6.546875 C 33.777344 6.546875 33.605469 6.375 33.605469 6.160156 C 33.605469 5.949219 33.777344 5.773438 33.992188 5.773438 L 34.070312 5.773438 C 34.28125 5.773438 34.457031 5.949219 34.457031 6.160156 C 34.457031 6.375 34.28125 6.546875 34.070312 6.546875 Z M 13.894531 6.601562 C 13.699219 6.601562 13.53125 6.457031 13.511719 6.257812 C 13.488281 6.042969 13.640625 5.855469 13.851562 5.832031 L 13.933594 5.824219 C 14.144531 5.800781 14.335938 5.957031 14.355469 6.167969 C 14.378906 6.378906 14.222656 6.570312 14.011719 6.59375 L 13.9375 6.601562 C 13.921875 6.601562 13.90625 6.601562 13.894531 6.601562 Z M 36.078125 6.617188 C 36.0625 6.617188 36.046875 6.617188 36.03125 6.613281 L 35.957031 6.605469 C 35.742188 6.582031 35.589844 6.390625 35.613281 6.175781 C 35.640625 5.964844 35.832031 5.8125 36.042969 5.835938 L 36.121094 5.847656 C 36.335938 5.871094 36.484375 6.0625 36.460938 6.277344 C 36.4375 6.472656 36.269531 6.617188 36.078125 6.617188 Z M 11.9375 7.03125 C 11.773438 7.03125 11.625 6.929688 11.570312 6.769531 C 11.5 6.566406 11.609375 6.347656 11.8125 6.277344 L 11.890625 6.253906 C 12.089844 6.1875 12.308594 6.296875 12.375 6.5 C 12.441406 6.703125 12.332031 6.921875 12.128906 6.988281 L 12.058594 7.011719 C 12.019531 7.023438 11.976562 7.03125 11.9375 7.03125 Z M 38.03125 7.074219 C 37.988281 7.074219 37.945312 7.066406 37.902344 7.050781 L 37.832031 7.027344 C 37.628906 6.957031 37.519531 6.738281 37.589844 6.535156 C 37.660156 6.332031 37.878906 6.226562 38.082031 6.292969 L 38.15625 6.320312 C 38.359375 6.390625 38.464844 6.613281 38.394531 6.8125 C 38.339844 6.972656 38.1875 7.074219 38.03125 7.074219 Z M 10.117188 7.871094 C 9.984375 7.871094 9.855469 7.804688 9.785156 7.683594 C 9.671875 7.5 9.734375 7.265625 9.914062 7.15625 L 9.984375 7.113281 C 10.167969 7.003906 10.40625 7.066406 10.515625 7.25 C 10.621094 7.433594 10.5625 7.671875 10.378906 7.78125 L 10.3125 7.816406 C 10.25 7.855469 10.183594 7.871094 10.117188 7.871094 Z M 39.839844 7.9375 C 39.769531 7.9375 39.699219 7.917969 39.636719 7.878906 L 39.574219 7.839844 C 39.390625 7.730469 39.332031 7.492188 39.441406 7.308594 C 39.554688 7.128906 39.792969 7.070312 39.972656 7.179688 L 40.042969 7.222656 C 40.226562 7.335938 40.28125 7.574219 40.167969 7.753906 C 40.09375 7.875 39.96875 7.9375 39.839844 7.9375 Z M 8.515625 9.082031 C 8.414062 9.082031 8.3125 9.042969 8.234375 8.960938 C 8.089844 8.808594 8.097656 8.5625 8.25 8.414062 C 8.269531 8.398438 8.289062 8.378906 8.3125 8.359375 C 8.46875 8.214844 8.710938 8.226562 8.855469 8.382812 C 9.003906 8.539062 8.992188 8.785156 8.835938 8.929688 L 8.78125 8.976562 C 8.707031 9.050781 8.613281 9.082031 8.515625 9.082031 Z M 41.421875 9.171875 C 41.324219 9.171875 41.226562 9.136719 41.152344 9.0625 L 41.097656 9.011719 C 40.945312 8.863281 40.9375 8.621094 41.085938 8.464844 C 41.234375 8.308594 41.476562 8.304688 41.632812 8.449219 L 41.691406 8.507812 C 41.84375 8.65625 41.847656 8.898438 41.699219 9.054688 C 41.625 9.132812 41.523438 9.171875 41.421875 9.171875 Z M 7.210938 10.609375 C 7.136719 10.609375 7.0625 10.585938 6.992188 10.539062 C 6.816406 10.417969 6.773438 10.179688 6.894531 10.003906 L 6.9375 9.9375 C 7.0625 9.761719 7.300781 9.71875 7.476562 9.839844 C 7.652344 9.960938 7.695312 10.203125 7.574219 10.378906 L 7.53125 10.441406 C 7.457031 10.550781 7.335938 10.609375 7.210938 10.609375 Z M 42.707031 10.710938 C 42.582031 10.710938 42.457031 10.652344 42.382812 10.539062 L 42.339844 10.480469 C 42.222656 10.300781 42.269531 10.0625 42.445312 9.941406 C 42.621094 9.820312 42.863281 9.867188 42.980469 10.046875 L 43.027344 10.113281 C 43.144531 10.289062 43.097656 10.53125 42.917969 10.648438 C 42.851562 10.691406 42.777344 10.710938 42.707031 10.710938 Z M 6.261719 12.375 C 6.214844 12.375 6.167969 12.367188 6.117188 12.347656 C 5.921875 12.265625 5.824219 12.042969 5.90625 11.84375 L 5.9375 11.769531 C 6.015625 11.570312 6.242188 11.476562 6.441406 11.558594 C 6.636719 11.640625 6.730469 11.867188 6.648438 12.066406 L 6.621094 12.132812 C 6.5625 12.285156 6.417969 12.375 6.261719 12.375 Z M 43.628906 12.492188 C 43.472656 12.492188 43.328125 12.398438 43.269531 12.246094 L 43.242188 12.175781 C 43.164062 11.976562 43.257812 11.753906 43.457031 11.675781 C 43.65625 11.59375 43.882812 11.691406 43.960938 11.890625 L 43.988281 11.964844 C 44.066406 12.164062 43.96875 12.390625 43.769531 12.464844 C 43.722656 12.484375 43.675781 12.492188 43.628906 12.492188 Z M 5.71875 14.304688 C 5.695312 14.304688 5.675781 14.304688 5.652344 14.300781 C 5.441406 14.265625 5.300781 14.066406 5.335938 13.855469 L 5.351562 13.773438 C 5.386719 13.566406 5.589844 13.425781 5.796875 13.460938 C 6.007812 13.5 6.148438 13.699219 6.113281 13.910156 L 6.097656 13.984375 C 6.066406 14.171875 5.902344 14.304688 5.71875 14.304688 Z M 44.148438 14.429688 C 43.960938 14.429688 43.796875 14.292969 43.765625 14.101562 L 43.753906 14.027344 C 43.722656 13.816406 43.863281 13.621094 44.074219 13.585938 C 44.285156 13.550781 44.484375 13.691406 44.519531 13.902344 L 44.53125 13.984375 C 44.5625 14.195312 44.417969 14.390625 44.207031 14.425781 C 44.1875 14.429688 44.167969 14.429688 44.148438 14.429688 Z M 5.585938 16.308594 C 5.375 16.308594 5.199219 16.132812 5.199219 15.921875 L 5.199219 15.84375 C 5.199219 15.628906 5.375 15.457031 5.585938 15.457031 C 5.800781 15.457031 5.972656 15.628906 5.972656 15.84375 L 5.972656 15.921875 C 5.972656 16.132812 5.800781 16.308594 5.585938 16.308594 Z M 44.257812 16.433594 C 44.046875 16.433594 43.871094 16.261719 43.871094 16.046875 L 43.871094 15.96875 C 43.871094 15.753906 44.046875 15.582031 44.257812 15.582031 C 44.472656 15.582031 44.644531 15.753906 44.644531 15.96875 L 44.644531 16.046875 C 44.644531 16.261719 44.472656 16.433594 44.257812 16.433594 Z M 5.585938 18.316406 C 5.375 18.316406 5.199219 18.144531 5.199219 17.929688 L 5.199219 17.855469 C 5.199219 17.640625 5.375 17.464844 5.585938 17.464844 C 5.800781 17.464844 5.972656 17.640625 5.972656 17.855469 L 5.972656 17.929688 C 5.972656 18.144531 5.800781 18.316406 5.585938 18.316406 Z M 44.257812 18.441406 C 44.046875 18.441406 43.871094 18.269531 43.871094 18.054688 L 43.871094 17.980469 C 43.871094 17.765625 44.046875 17.59375 44.257812 17.59375 C 44.472656 17.59375 44.644531 17.765625 44.644531 17.980469 L 44.644531 18.054688 C 44.644531 18.269531 44.472656 18.441406 44.257812 18.441406 Z M 5.585938 20.328125 C 5.375 20.328125 5.199219 20.15625 5.199219 19.941406 L 5.199219 19.863281 C 5.199219 19.648438 5.375 19.476562 5.585938 19.476562 C 5.800781 19.476562 5.972656 19.648438 5.972656 19.863281 L 5.972656 19.941406 C 5.972656 20.15625 5.800781 20.328125 5.585938 20.328125 Z M 44.257812 20.453125 C 44.046875 20.453125 43.871094 20.28125 43.871094 20.066406 L 43.871094 19.988281 C 43.871094 19.777344 44.046875 19.601562 44.257812 19.601562 C 44.472656 19.601562 44.644531 19.777344 44.644531 19.988281 L 44.644531 20.066406 C 44.644531 20.28125 44.472656 20.453125 44.257812 20.453125 Z M 5.585938 22.335938 C 5.375 22.335938 5.199219 22.164062 5.199219 21.949219 L 5.199219 21.875 C 5.199219 21.660156 5.375 21.488281 5.585938 21.488281 C 5.800781 21.488281 5.972656 21.660156 5.972656 21.875 L 5.972656 21.949219 C 5.972656 22.164062 5.800781 22.335938 5.585938 22.335938 Z M 44.257812 22.464844 C 44.046875 22.464844 43.871094 22.289062 43.871094 22.078125 L 43.871094 22 C 43.871094 21.785156 44.046875 21.613281 44.257812 21.613281 C 44.472656 21.613281 44.644531 21.785156 44.644531 22 L 44.644531 22.078125 C 44.644531 22.289062 44.472656 22.464844 44.257812 22.464844 Z M 5.585938 24.347656 C 5.375 24.347656 5.199219 24.175781 5.199219 23.960938 L 5.199219 23.882812 C 5.199219 23.667969 5.375 23.496094 5.585938 23.496094 C 5.800781 23.496094 5.972656 23.667969 5.972656 23.882812 L 5.972656 23.960938 C 5.972656 24.175781 5.800781 24.347656 5.585938 24.347656 Z M 44.257812 24.472656 C 44.046875 24.472656 43.871094 24.300781 43.871094 24.085938 L 43.871094 24.007812 C 43.871094 23.796875 44.046875 23.621094 44.257812 23.621094 C 44.472656 23.621094 44.644531 23.796875 44.644531 24.007812 L 44.644531 24.085938 C 44.644531 24.300781 44.472656 24.472656 44.257812 24.472656 Z M 5.585938 26.359375 C 5.375 26.359375 5.199219 26.183594 5.199219 25.972656 L 5.199219 25.894531 C 5.199219 25.679688 5.375 25.507812 5.585938 25.507812 C 5.800781 25.507812 5.972656 25.679688 5.972656 25.894531 L 5.972656 25.972656 C 5.972656 26.183594 5.800781 26.359375 5.585938 26.359375 Z M 44.257812 26.484375 C 44.046875 26.484375 43.871094 26.308594 43.871094 26.097656 L 43.871094 26.019531 C 43.871094 25.804688 44.046875 25.632812 44.257812 25.632812 C 44.472656 25.632812 44.644531 25.804688 44.644531 26.019531 L 44.644531 26.097656 C 44.644531 26.308594 44.472656 26.484375 44.257812 26.484375 Z M 5.585938 28.367188 C 5.375 28.367188 5.199219 28.195312 5.199219 27.980469 L 5.199219 27.902344 C 5.199219 27.691406 5.375 27.515625 5.585938 27.515625 C 5.800781 27.515625 5.972656 27.691406 5.972656 27.902344 L 5.972656 27.980469 C 5.972656 28.195312 5.800781 28.367188 5.585938 28.367188 Z M 44.257812 28.492188 C 44.046875 28.492188 43.871094 28.320312 43.871094 28.105469 L 43.871094 28.027344 C 43.871094 27.816406 44.046875 27.640625 44.257812 27.640625 C 44.472656 27.640625 44.644531 27.816406 44.644531 28.027344 L 44.644531 28.105469 C 44.644531 28.320312 44.472656 28.492188 44.257812 28.492188 Z M 5.585938 30.378906 C 5.375 30.378906 5.199219 30.203125 5.199219 29.992188 L 5.199219 29.914062 C 5.199219 29.699219 5.375 29.527344 5.585938 29.527344 C 5.800781 29.527344 5.972656 29.699219 5.972656 29.914062 L 5.972656 29.992188 C 5.972656 30.203125 5.800781 30.378906 5.585938 30.378906 Z M 44.257812 30.503906 C 44.046875 30.503906 43.871094 30.332031 43.871094 30.117188 L 43.871094 30.039062 C 43.871094 29.824219 44.046875 29.652344 44.257812 29.652344 C 44.472656 29.652344 44.644531 29.824219 44.644531 30.039062 L 44.644531 30.117188 C 44.644531 30.332031 44.472656 30.503906 44.257812 30.503906 Z M 5.585938 32.386719 C 5.375 32.386719 5.199219 32.214844 5.199219 32 L 5.199219 31.921875 C 5.199219 31.710938 5.375 31.535156 5.585938 31.535156 C 5.800781 31.535156 5.972656 31.710938 5.972656 31.921875 L 5.972656 32 C 5.972656 32.214844 5.800781 32.386719 5.585938 32.386719 Z M 44.257812 32.511719 C 44.046875 32.511719 43.871094 32.339844 43.871094 32.125 L 43.871094 32.050781 C 43.871094 31.835938 44.046875 31.664062 44.257812 31.664062 C 44.472656 31.664062 44.644531 31.835938 44.644531 32.050781 L 44.644531 32.125 C 44.644531 32.339844 44.472656 32.511719 44.257812 32.511719 Z M 5.585938 34.398438 C 5.375 34.398438 5.199219 34.222656 5.199219 34.011719 L 5.199219 33.933594 C 5.199219 33.71875 5.375 33.546875 5.585938 33.546875 C 5.800781 33.546875 5.972656 33.71875 5.972656 33.933594 L 5.972656 34.011719 C 5.972656 34.222656 5.800781 34.398438 5.585938 34.398438 Z M 44.257812 34.523438 C 44.046875 34.523438 43.871094 34.351562 43.871094 34.136719 L 43.871094 34.058594 C 43.871094 33.84375 44.046875 33.671875 44.257812 33.671875 C 44.472656 33.671875 44.644531 33.84375 44.644531 34.058594 L 44.644531 34.136719 C 44.644531 34.351562 44.472656 34.523438 44.257812 34.523438 Z M 5.601562 36.40625 C 5.394531 36.40625 5.226562 36.246094 5.214844 36.042969 L 5.210938 35.960938 C 5.199219 35.746094 5.367188 35.566406 5.578125 35.558594 C 5.792969 35.546875 5.972656 35.710938 5.984375 35.925781 L 5.988281 36 C 6 36.210938 5.835938 36.394531 5.621094 36.40625 C 5.613281 36.40625 5.609375 36.40625 5.601562 36.40625 Z M 44.238281 36.53125 C 44.230469 36.53125 44.222656 36.53125 44.210938 36.53125 C 44 36.519531 43.839844 36.332031 43.851562 36.121094 L 43.855469 36.046875 C 43.871094 35.832031 44.050781 35.671875 44.265625 35.683594 C 44.480469 35.695312 44.640625 35.878906 44.628906 36.089844 L 44.625 36.171875 C 44.609375 36.375 44.441406 36.53125 44.238281 36.53125 Z M 5.921875 38.386719 C 5.753906 38.386719 5.597656 38.273438 5.550781 38.101562 C 5.542969 38.078125 5.535156 38.050781 5.527344 38.023438 C 5.472656 37.820312 5.597656 37.605469 5.800781 37.550781 C 6.007812 37.496094 6.222656 37.621094 6.277344 37.824219 L 6.296875 37.898438 C 6.351562 38.101562 6.230469 38.316406 6.027344 38.371094 C 5.992188 38.382812 5.957031 38.386719 5.921875 38.386719 Z M 43.890625 38.507812 C 43.855469 38.507812 43.816406 38.503906 43.78125 38.492188 C 43.578125 38.433594 43.457031 38.21875 43.519531 38.011719 L 43.539062 37.941406 C 43.597656 37.734375 43.808594 37.617188 44.015625 37.675781 C 44.222656 37.730469 44.339844 37.945312 44.285156 38.152344 L 44.261719 38.226562 C 44.210938 38.398438 44.058594 38.507812 43.890625 38.507812 Z M 6.664062 40.25 C 6.523438 40.25 6.390625 40.175781 6.320312 40.042969 L 6.285156 39.972656 C 6.183594 39.785156 6.257812 39.550781 6.449219 39.453125 C 6.640625 39.355469 6.871094 39.429688 6.96875 39.617188 L 7.003906 39.683594 C 7.105469 39.871094 7.03125 40.105469 6.84375 40.207031 C 6.785156 40.234375 6.722656 40.25 6.664062 40.25 Z M 43.125 40.363281 C 43.0625 40.363281 42.996094 40.347656 42.9375 40.316406 C 42.75 40.210938 42.683594 39.976562 42.785156 39.789062 L 42.820312 39.722656 C 42.921875 39.535156 43.15625 39.464844 43.34375 39.566406 C 43.53125 39.667969 43.601562 39.902344 43.5 40.089844 L 43.464844 40.160156 C 43.394531 40.289062 43.261719 40.363281 43.125 40.363281 Z M 7.785156 41.914062 C 7.675781 41.914062 7.566406 41.867188 7.488281 41.773438 L 7.4375 41.714844 C 7.300781 41.550781 7.324219 41.304688 7.488281 41.167969 C 7.652344 41.03125 7.898438 41.054688 8.035156 41.21875 L 8.082031 41.277344 C 8.21875 41.4375 8.199219 41.683594 8.035156 41.820312 C 7.960938 41.882812 7.875 41.914062 7.785156 41.914062 Z M 41.980469 42.007812 C 41.886719 42.007812 41.796875 41.976562 41.726562 41.914062 C 41.5625 41.773438 41.546875 41.527344 41.6875 41.367188 L 41.734375 41.3125 C 41.875 41.148438 42.117188 41.128906 42.28125 41.269531 C 42.441406 41.40625 42.460938 41.652344 42.324219 41.8125 L 42.269531 41.875 C 42.195312 41.964844 42.085938 42.007812 41.980469 42.007812 Z M 9.234375 43.296875 C 9.152344 43.296875 9.070312 43.269531 9 43.21875 L 8.9375 43.167969 C 8.769531 43.035156 8.738281 42.792969 8.871094 42.625 C 9.003906 42.457031 9.246094 42.425781 9.414062 42.558594 L 9.472656 42.601562 C 9.640625 42.734375 9.671875 42.976562 9.542969 43.144531 C 9.46875 43.246094 9.351562 43.296875 9.234375 43.296875 Z M 40.507812 43.375 C 40.390625 43.375 40.273438 43.320312 40.199219 43.21875 C 40.070312 43.046875 40.105469 42.804688 40.277344 42.675781 L 40.335938 42.632812 C 40.507812 42.503906 40.75 42.535156 40.878906 42.707031 C 41.007812 42.875 40.976562 43.117188 40.804688 43.246094 L 40.738281 43.296875 C 40.671875 43.347656 40.589844 43.375 40.507812 43.375 Z M 10.949219 44.339844 C 10.894531 44.339844 10.839844 44.328125 10.785156 44.304688 L 10.710938 44.269531 C 10.519531 44.175781 10.4375 43.945312 10.53125 43.753906 C 10.625 43.5625 10.855469 43.480469 11.046875 43.570312 L 11.113281 43.605469 C 11.308594 43.695312 11.390625 43.925781 11.300781 44.117188 C 11.234375 44.257812 11.09375 44.339844 10.949219 44.339844 Z M 38.785156 44.394531 C 38.636719 44.394531 38.496094 44.308594 38.429688 44.167969 C 38.34375 43.972656 38.429688 43.742188 38.621094 43.65625 L 38.691406 43.625 C 38.882812 43.535156 39.113281 43.617188 39.203125 43.8125 C 39.292969 44.003906 39.210938 44.234375 39.015625 44.324219 L 38.941406 44.359375 C 38.890625 44.382812 38.835938 44.394531 38.785156 44.394531 Z M 12.847656 44.992188 C 12.820312 44.992188 12.789062 44.988281 12.761719 44.980469 L 12.683594 44.964844 C 12.476562 44.914062 12.347656 44.707031 12.394531 44.5 C 12.445312 44.292969 12.652344 44.164062 12.859375 44.210938 L 12.933594 44.226562 C 13.140625 44.273438 13.269531 44.480469 13.222656 44.691406 C 13.183594 44.871094 13.023438 44.992188 12.847656 44.992188 Z M 36.875 45.019531 C 36.699219 45.019531 36.539062 44.894531 36.5 44.710938 C 36.453125 44.503906 36.589844 44.296875 36.796875 44.253906 L 36.871094 44.238281 C 37.078125 44.191406 37.285156 44.324219 37.332031 44.53125 C 37.375 44.738281 37.246094 44.945312 37.035156 44.992188 L 36.957031 45.007812 C 36.929688 45.015625 36.902344 45.019531 36.875 45.019531 Z M 14.839844 45.21875 C 14.839844 45.21875 14.835938 45.21875 14.835938 45.21875 L 14.757812 45.21875 C 14.542969 45.214844 14.371094 45.039062 14.375 44.828125 C 14.378906 44.613281 14.554688 44.441406 14.765625 44.445312 L 14.84375 44.445312 C 15.054688 44.449219 15.226562 44.621094 15.226562 44.835938 C 15.222656 45.046875 15.050781 45.21875 14.839844 45.21875 Z M 16.847656 45.21875 L 16.773438 45.21875 C 16.558594 45.21875 16.386719 45.046875 16.386719 44.832031 C 16.386719 44.621094 16.558594 44.445312 16.773438 44.445312 L 16.847656 44.445312 C 17.0625 44.445312 17.234375 44.621094 17.234375 44.832031 C 17.234375 45.046875 17.0625 45.21875 16.847656 45.21875 Z M 18.859375 45.21875 L 18.78125 45.21875 C 18.570312 45.21875 18.394531 45.046875 18.394531 44.832031 C 18.394531 44.621094 18.570312 44.445312 18.78125 44.445312 L 18.859375 44.445312 C 19.074219 44.445312 19.246094 44.621094 19.246094 44.832031 C 19.246094 45.046875 19.074219 45.21875 18.859375 45.21875 Z M 20.871094 45.21875 L 20.792969 45.21875 C 20.578125 45.21875 20.40625 45.046875 20.40625 44.832031 C 20.40625 44.621094 20.578125 44.445312 20.792969 44.445312 L 20.871094 44.445312 C 21.082031 44.445312 21.257812 44.621094 21.257812 44.832031 C 21.257812 45.046875 21.082031 45.21875 20.871094 45.21875 Z M 22.878906 45.21875 L 22.800781 45.21875 C 22.589844 45.21875 22.414062 45.046875 22.414062 44.832031 C 22.414062 44.621094 22.589844 44.445312 22.800781 44.445312 L 22.878906 44.445312 C 23.09375 44.445312 23.265625 44.621094 23.265625 44.832031 C 23.265625 45.046875 23.09375 45.21875 22.878906 45.21875 Z M 24.890625 45.21875 L 24.8125 45.21875 C 24.597656 45.21875 24.425781 45.046875 24.425781 44.832031 C 24.425781 44.621094 24.597656 44.445312 24.8125 44.445312 L 24.890625 44.445312 C 25.101562 44.445312 25.277344 44.621094 25.277344 44.832031 C 25.277344 45.046875 25.101562 45.21875 24.890625 45.21875 Z M 26.898438 45.21875 L 26.820312 45.21875 C 26.609375 45.21875 26.433594 45.046875 26.433594 44.832031 C 26.433594 44.621094 26.609375 44.445312 26.820312 44.445312 L 26.898438 44.445312 C 27.113281 44.445312 27.285156 44.621094 27.285156 44.832031 C 27.285156 45.046875 27.113281 45.21875 26.898438 45.21875 Z M 28.910156 45.21875 L 28.832031 45.21875 C 28.617188 45.21875 28.445312 45.046875 28.445312 44.832031 C 28.445312 44.621094 28.617188 44.445312 28.832031 44.445312 L 28.910156 44.445312 C 29.121094 44.445312 29.296875 44.621094 29.296875 44.832031 C 29.296875 45.046875 29.121094 45.21875 28.910156 45.21875 Z M 30.917969 45.21875 L 30.84375 45.21875 C 30.628906 45.21875 30.457031 45.046875 30.457031 44.832031 C 30.457031 44.621094 30.628906 44.445312 30.84375 44.445312 L 30.917969 44.445312 C 31.132812 44.445312 31.304688 44.621094 31.304688 44.832031 C 31.304688 45.046875 31.132812 45.21875 30.917969 45.21875 Z M 32.929688 45.21875 L 32.851562 45.21875 C 32.636719 45.21875 32.464844 45.046875 32.464844 44.832031 C 32.464844 44.621094 32.636719 44.445312 32.851562 44.445312 L 32.929688 44.445312 C 33.144531 44.445312 33.316406 44.621094 33.316406 44.832031 C 33.316406 45.046875 33.144531 45.21875 32.929688 45.21875 Z M 34.960938 45.21875 L 34.863281 45.21875 C 34.648438 45.21875 34.476562 45.046875 34.476562 44.832031 C 34.476562 44.621094 34.648438 44.445312 34.863281 44.445312 L 34.960938 44.445312 C 35.171875 44.445312 35.347656 44.621094 35.347656 44.832031 C 35.347656 45.046875 35.171875 45.21875 34.960938 45.21875 " fill-opacity="1" fill-rule="nonzero"/></g><g clip-path="url(#bd6c222995)"><path fill="#000000" d="M 36.925781 22.070312 C 36.816406 21.265625 36.800781 19.875 37.550781 19.410156 C 37.566406 19.402344 37.574219 19.390625 37.585938 19.378906 C 38.199219 19.183594 38.625 18.910156 38.292969 18.539062 L 29.25 15.824219 L 14.609375 17.851562 C 14.609375 17.851562 12.933594 18.09375 13.082031 20.691406 C 13.160156 22.105469 13.605469 22.796875 13.996094 23.140625 L 12.792969 23.503906 C 12.460938 23.871094 12.886719 24.144531 13.5 24.339844 C 13.511719 24.351562 13.519531 24.363281 13.535156 24.371094 C 14.28125 24.839844 14.265625 26.222656 14.160156 27.03125 C 11.46875 27.789062 12.433594 28.039062 12.433594 28.039062 L 13.027344 28.183594 C 12.609375 28.558594 12.195312 29.265625 12.277344 30.613281 C 12.425781 33.210938 13.800781 33.390625 13.800781 33.390625 L 23.382812 36.496094 L 37.84375 33.003906 C 37.84375 33.003906 38.808594 32.753906 36.117188 31.988281 C 36.011719 31.1875 35.996094 29.800781 36.746094 29.332031 C 36.761719 29.324219 36.769531 29.3125 36.78125 29.300781 C 37.394531 29.105469 37.816406 28.832031 37.484375 28.464844 L 36.855469 28.273438 C 37.277344 28.023438 37.90625 27.363281 38.003906 25.652344 C 38.074219 24.476562 37.761719 23.785156 37.40625 23.378906 L 38.648438 23.078125 C 38.648438 23.078125 39.617188 22.832031 36.925781 22.070312 Z M 24.828125 22.035156 L 27.257812 21.539062 L 35.480469 19.851562 L 36.703125 19.601562 C 36.3125 20.316406 36.328125 21.292969 36.390625 21.921875 C 36.40625 22.0625 36.421875 22.191406 36.4375 22.292969 L 35.097656 22.621094 L 24.726562 25.195312 Z M 14.382812 24.5625 L 15.605469 24.8125 L 23.5 26.433594 L 24.1875 26.574219 L 26.257812 26.996094 L 26.355469 30.15625 L 15.695312 27.515625 L 14.644531 27.253906 C 14.660156 27.152344 14.675781 27.023438 14.691406 26.882812 C 14.757812 26.253906 14.773438 25.277344 14.382812 24.5625 Z M 13.90625 20.566406 C 13.890625 19.875 14.015625 19.375 14.265625 19.121094 C 14.421875 18.957031 14.613281 18.925781 14.738281 18.925781 C 14.808594 18.925781 14.855469 18.933594 14.859375 18.933594 L 21.167969 20.984375 L 24.316406 22.007812 L 24.214844 25.191406 L 15.382812 22.722656 L 14.917969 22.59375 C 14.898438 22.589844 14.875 22.585938 14.859375 22.585938 C 14.820312 22.582031 13.949219 22.503906 13.90625 20.566406 Z M 23.40625 35.117188 L 14.109375 32.515625 C 14.09375 32.511719 14.070312 32.507812 14.050781 32.507812 C 14.015625 32.503906 13.140625 32.425781 13.097656 30.488281 C 13.085938 29.796875 13.207031 29.296875 13.457031 29.042969 C 13.617188 28.878906 13.804688 28.847656 13.933594 28.847656 C 14 28.847656 14.050781 28.859375 14.050781 28.859375 C 14.050781 28.859375 14.054688 28.859375 14.050781 28.859375 L 23.507812 31.929688 Z M 35.585938 31.84375 C 35.601562 31.984375 35.617188 32.113281 35.632812 32.214844 L 23.921875 35.121094 L 24.019531 31.957031 L 26.527344 31.445312 L 26.894531 31.535156 L 28.28125 31.085938 L 34.671875 29.773438 L 35.894531 29.523438 C 35.503906 30.238281 35.519531 31.214844 35.585938 31.84375 Z M 36.230469 27.546875 C 36.210938 27.546875 36.1875 27.550781 36.167969 27.554688 L 35.285156 27.804688 L 26.871094 30.152344 L 26.769531 26.96875 L 29.53125 26.070312 L 36.210938 23.898438 C 36.210938 23.898438 36.5625 23.820312 36.820312 24.082031 C 37.070312 24.335938 37.195312 24.835938 37.179688 25.527344 C 37.136719 27.464844 36.261719 27.542969 36.230469 27.546875 Z M 36.230469 27.546875 " fill-opacity="1" fill-rule="nonzero"/></g></svg>